<svg version="1" xmlns="http://www.w3.org/2000/svg" width="396" height="396" viewBox="0 0 297.000000 297.000000"><path d="M229.5 66c-26.8 3.1-44.9 19-49.1 43-1.1 6.7-1.2 10.1-.3 16.4 2.5 18.6 11.1 32.1 25 39.1 9.3 4.8 17 6.5 28.7 6.5 11.2 0 14.7 1.1 15.7 4.7.8 3.5-.1 5.8-3.1 7.3-3.2 1.8-23.5 1.8-28.6.1-2.9-1-4.1-1-5.7.1-2.9 1.8-2.6 3.3.7 4.7 9.6 3.8 28.1 4.6 35.2 1.4 5.9-2.6 7.2-4.3 7.8-10.2.5-6.1-1.7-10.8-6.1-12.5-1.8-.8-8.6-1.6-15.2-1.9-15.9-.9-22.4-2.9-32.7-10.3-8.3-6.1-13.9-17.5-15.2-30.9-2.3-24.4 12.4-44 37.3-50 8.9-2.1 26.3-1.7 38.1 1 9.7 2.3 22.4 7.8 26.7 11.6 3.8 3.3 6 3.4 7.7.6.9-1.6.5-2.3-2.4-4.8-1.9-1.7-6.3-4.6-9.7-6.5-12-6.8-38.6-11.3-54.8-9.4zM55.7 83.2c-2.5 6.2-15.3 38.7-28.5 72.3C13.9 189 2.4 218.1 1.6 220.1c-.8 2-1.2 3.9-.9 4.3 1.1 1.1 5 .6 6.2-.7.6-.8 13.4-32.6 28.4-70.7 15.1-38.2 27.8-69.5 28.4-69.7.5-.2 13.5 31.5 28.9 70.4l27.9 70.8 3.4.3c3 .3 3.3.1 2.8-1.7-.3-1.1-13.7-35.6-29.8-76.6L67.6 72h-7.4l-4.5 11.2zM75.4 73.7c.3 1 13.8 35.3 29.9 76.3l29.4 74.5h3.4c2.5 0 3.3-.4 3.1-1.5-.2-.8-3.2-8.7-6.7-17.5-14.8-37.5-37.8-95.4-45-113.8L81.7 72h-3.4c-2.8 0-3.3.3-2.9 1.7zM89 72.3c0 .3 1.7 4.7 3.9 9.8 2.1 5.2 15.5 38.9 29.6 74.9 14.2 36 26.2 66.1 26.8 66.8 1.5 1.9 6.3 1.1 5.9-1-.1-.9-11.8-30.8-25.9-66.5-14-35.6-27.2-69.1-29.2-74.3-3.7-9.5-3.7-9.5-7.4-9.8-2-.2-3.7-.1-3.7.1zM104 72.9c0 .5 5.6 15.2 12.6 32.7 6.9 17.6 19.9 50.7 29 73.8 9 23 16.9 42.7 17.5 43.7 1.4 2.7 7.3 2.7 6.7.1-.3-1-13.7-35.4-29.9-76.5L110.5 72h-3.2c-1.8 0-3.3.4-3.3.9z"/><path d="M223.4 80.5c-11.7 2.8-22.5 11.4-27.3 21.5-2.3 4.9-2.6 6.7-2.6 17 0 10.7.2 11.9 3 17.4 4.1 8.1 10.2 14.1 18.2 17.8 6.1 2.9 7.8 3.2 20.8 3.9 19.2.9 23.9 3.3 26.6 13.3 2.8 10.5-.8 19.3-9.8 23.7-4.3 2.1-6.2 2.3-17.8 2.3-13.3 0-22-1.6-27.3-5.1-2.7-1.7-6.7-1.1-7.6 1.2-.6 1.8 5.3 5.4 13.4 8.1 4.5 1.5 8.5 1.9 21.5 1.9 14.8 0 16.4-.2 20.8-2.4 6.1-3 12.1-9.8 13.7-15.6 2.9-10.4-1.4-24.1-9.2-29.3-5.3-3.5-13.6-5.2-25.4-5.2-5.6 0-11.6-.5-13.5-1.2-13.8-4.8-21.1-15.6-21.1-31.5 0-6.6.5-9.2 2.5-13.5 6.5-13.9 20.6-20.7 40.4-19.4 14.9.9 22 2.6 32 7.7 8.6 4.4 9.3 4.6 10.7 3 .9-1 1.6-2 1.6-2.3 0-1-11.2-7.9-16-9.8-12.2-4.8-35.4-6.5-47.6-3.5z"/><path d="M225.5 93.4c-13 4.1-18.9 11.7-18.9 24.6-.1 8.8 1.5 13.9 5.7 18.6 5.5 6.4 9.5 7.7 25.7 8.4 18.6.9 23.8 2.6 29.8 9.5 7 7.9 10.1 18.9 8.3 28.8-3 16.1-13.6 25.3-32 27.5-13.9 1.7-35.7-2.5-45.8-8.8-4.3-2.7-5.4-3-7.2-2.1-3.2 1.8-2.5 3.6 2.7 6.9 17 11 47 14.2 65.6 7.1 8-3.1 16.6-11.2 20.1-19.1 6.8-15.1 3.5-34.5-7.6-45.6-8.3-8.2-13.6-10-32.9-11.1-15.4-.8-19.2-2.1-22.9-7.8-2.8-4.4-3.9-13.4-2.2-18.6 3-8.9 11.4-12.8 27.5-12.8 11.9.1 17.1 1 25.2 4.6 5.3 2.3 5.9 2.4 8.1 1 1.2-.9 2.3-1.9 2.3-2.4 0-1.6-9.9-6.1-17.6-8.1-9.2-2.3-27.5-2.6-33.9-.6zM63.4 99.5c-.4 1.1-11.5 29.2-24.6 62.5C25.7 195.3 15 223.1 15 223.8c0 .9 1.1 1.2 3.2 1l3.1-.3L44.7 165c14.4-36.5 23.2-60.2 22.9-61.5-.3-1.1-1.2-2.9-2-4l-1.5-2-.7 2z"/><path d="M228.8 106.5c-6.2 2-8.8 5.7-8.8 12.4 0 4.1.5 5.6 2.8 8.2 3.3 3.7 7.9 4.8 20.1 4.9 8.5 0 18.1 1.9 23.6 4.7 4.7 2.5 12.3 9.2 15.4 13.7 6.7 9.8 9.5 25.9 6.7 38-4.1 17.2-16.1 29.1-34.6 34.2-9 2.5-27.7 2.4-38.5-.1-9.3-2.2-20-6.8-27.5-11.8-5-3.4-5.4-3.5-7.6-2-1.3.8-2.4 1.9-2.4 2.3 0 1.4 9.5 7.9 16.1 11 3.5 1.6 10.9 4.2 16.4 5.7 8.9 2.4 11.7 2.8 25 2.8 12.9 0 16-.4 22.5-2.4 10.4-3.2 15.8-6.2 22.4-12.2 17.5-16 21.1-45.5 8.1-67.4-5.8-9.8-14.1-16.3-27.1-21-5.9-2.2-8.6-2.5-19.1-2.5-11 0-12.5-.2-14.3-2-2.7-2.7-2.5-5.6.5-8.5 2.2-2.3 3.2-2.5 10.7-2.5 4.6 0 11.8.5 16.1 1.2 6.8 1 8 1 9.4-.4.8-.9 1.2-2.1.9-2.7-2.4-3.9-28.1-6.4-36.8-3.6zM67.2 126.2c-23.1 58-38.1 97.1-37.6 97.9.8 1.3 5 1.1 6.1-.4.6-.6 3.3-7.1 6-14.2 2.8-7.2 11.4-29.2 19.2-49 14.7-37.1 15.5-40.2 11.7-43.4-1.1-.9-2.1.9-5.4 9.1zM71.5 151.2c-3.7 9.5-9.5 24.3-12.8 32.8-3.3 8.5-8.2 20.9-10.8 27.5-2.6 6.6-4.5 12.3-4.2 12.7.7 1.3 6.1.9 6.6-.5.2-.6 7.5-19 16.1-40.9C75 161 82 142.5 82 141.7c0-2.2-2.1-7.7-3-7.7-.4 0-3.8 7.8-7.5 17.2zM73 175.6c-.6 1.4-.8 3-.4 3.5.3.5 6.1.9 13 .9 12.3 0 12.4 0 12.4-2.3 0-4.1-1.7-4.7-13.2-4.7-10.7 0-10.9 0-11.8 2.6zM68.7 187.8c-1 1-1.7 2.6-1.7 3.5 0 1.5 1.9 1.7 18.5 1.7 19.7 0 20.2-.1 16.9-4.8-1.4-2.1-2.1-2.2-16.8-2.2-13.5 0-15.5.2-16.9 1.8zM62.5 203l-1.6 3H85c16.3 0 24-.3 24-1.1 0-.6-.5-1.9-1-3-1-1.8-2.3-1.9-22.5-1.9H64.1l-1.6 3z"/></svg>